<svg width="24" height="24" viewBox="0 0 24 24" fill="none" xmlns="http://www.w3.org/2000/svg">
<path d="M8.23633 3.58903C7.91849 3.55111 7.5923 3.59012 7.28516 3.70817C6.36623 4.05971 5.16802 4.60849 4.12109 5.45426L4.09375 5.47575L4.06836 5.49723C3.60387 5.92782 3.34881 6.44431 3.02344 7.15153C2.69807 7.85874 2.37002 8.73149 2.07227 9.71403C1.47675 11.6791 1 14.0706 1 16.3644C1 16.6045 1.06291 16.854 1.1875 17.0734C1.99369 18.4965 3.38757 19.2895 4.62891 19.7648C5.86014 20.2362 6.90378 20.396 7.5 20.4172C7.51943 20.4178 7.56864 20.425 7.57031 20.425C7.9779 20.425 8.50727 20.2749 8.80469 19.7121L9.72656 17.9679C11.253 18.2352 12.6982 18.2314 14.2656 17.9523L15.1934 19.7082C15.4917 20.2773 16.026 20.423 16.4297 20.423C16.4312 20.423 16.4775 20.4178 16.4941 20.4172C17.0904 20.3966 18.1373 20.2354 19.3711 19.7629C20.6109 19.288 22.0024 18.4969 22.8086 17.0773C22.9372 16.8541 23 16.6033 23 16.3644C23 14.0706 22.5224 11.6779 21.9238 9.71012C21.6246 8.72621 21.2956 7.85008 20.9668 7.13981C20.638 6.42954 20.3733 5.90819 19.9082 5.4777L19.8828 5.45622L19.8574 5.43473C18.8215 4.59724 17.629 4.05469 16.7129 3.70622C16.1002 3.47273 15.4092 3.5557 14.8672 3.92887C14.4486 4.21671 14.3068 4.71471 14.1973 5.20036H9.80273C9.69282 4.71514 9.55186 4.21668 9.13477 3.92887C8.86364 3.74179 8.55416 3.62695 8.23633 3.58903ZM8 5.57536C8 6.46142 8.73894 7.20036 9.625 7.20036H14.373C15.2579 7.20036 15.9989 6.46 16 5.57536H16.002C16.7883 5.87449 17.7963 6.35828 18.5625 6.96794C18.5802 6.98986 18.8775 7.39018 19.1504 7.97965C19.4292 8.58195 19.7338 9.38482 20.0098 10.2922C20.5461 12.0555 20.9488 14.2267 20.9727 16.1925C20.4907 16.9435 19.6026 17.5332 18.6562 17.8957C17.8044 18.2219 17.0977 18.3065 16.7363 18.3468L16.2734 17.4699C16.6167 17.3692 16.9576 17.2703 17.3203 17.1476C17.4468 17.1072 17.5639 17.0421 17.665 16.9559C17.766 16.8698 17.8488 16.7644 17.9087 16.6459C17.9686 16.5274 18.0042 16.3982 18.0136 16.2657C18.023 16.1333 18.006 16.0003 17.9635 15.8746C17.9209 15.7488 17.8538 15.6328 17.766 15.5332C17.6781 15.4337 17.5713 15.3526 17.4518 15.2948C17.3323 15.2369 17.2025 15.2034 17.07 15.1963C16.9374 15.1891 16.8047 15.2084 16.6797 15.2531C12.8496 16.5482 10.9651 16.5496 7.33398 15.259C7.20863 15.2121 7.07513 15.1908 6.94141 15.1965C6.70898 15.2076 6.48772 15.2995 6.31573 15.4562C6.14375 15.613 6.03181 15.8248 5.9992 16.0552C5.96658 16.2856 6.01533 16.5202 6.13704 16.7185C6.25876 16.9168 6.44582 17.0665 6.66602 17.1418C7.02989 17.2711 7.37505 17.3766 7.7207 17.4816L7.26367 18.3468C6.90254 18.3066 6.19557 18.2218 5.34375 17.8957C4.3974 17.5333 3.50976 16.946 3.02734 16.1945C3.05091 14.2281 3.45222 12.0565 3.98633 10.2941C4.26107 9.38752 4.56371 8.58766 4.83984 7.98747C5.10963 7.40106 5.40707 7.00174 5.41602 6.98747C6.19667 6.36685 7.21087 5.87724 8 5.57536ZM9.03906 10.1965C8.21006 10.1965 7.53906 11.0895 7.53906 12.1925C7.53906 13.2955 8.21006 14.1886 9.03906 14.1886C9.86806 14.1886 10.5391 13.2955 10.5391 12.1925C10.5211 11.0895 9.87106 10.0865 9.03906 10.1965ZM14.9961 10.2121C14.5983 10.2121 14.2167 10.4228 13.9354 10.7979C13.6541 11.1729 13.4961 11.6816 13.4961 12.2121C13.4961 12.7425 13.6541 13.2512 13.9354 13.6263C14.2167 14.0014 14.5983 14.2121 14.9961 14.2121C15.3939 14.2121 15.7755 14.0014 16.0568 13.6263C16.3381 13.2512 16.4961 12.7425 16.4961 12.2121C16.4961 11.6816 16.3381 11.1729 16.0568 10.7979C15.7755 10.4228 15.3939 10.2121 14.9961 10.2121Z" fill="#BFC7D5"/>
</svg>
